<svg xmlns="http://www.w3.org/2000/svg" viewBox="0 0 600 600"><rect width="600" height="600" fill="#e8e1d6"/><rect x="9" y="9" width="52" height="72" rx="6" fill="#d9d0c2"/><rect x="9" y="99" width="52" height="92" rx="6" fill="#ddd5c8"/><rect x="9" y="209" width="52" height="102" rx="6" fill="#d9d0c2"/><rect x="9" y="329" width="52" height="92" rx="6" fill="#d4cabb"/><rect x="9" y="439" width="52" height="92" rx="6" fill="#ddd5c8"/><rect x="9" y="549" width="52" height="42" rx="6" fill="#ddd5c8"/><rect x="79" y="9" width="102" height="72" rx="6" fill="#d9d0c2"/><rect x="79" y="99" width="102" height="92" rx="6" fill="#d9d0c2"/><rect x="79" y="209" width="102" height="102" rx="6" fill="#d9d0c2"/><rect x="79" y="329" width="102" height="92" rx="6" fill="#d9d0c2"/><rect x="79" y="439" width="102" height="92" rx="6" fill="#ddd5c8"/><rect x="79" y="549" width="102" height="42" rx="6" fill="#d4cabb"/><rect x="199" y="9" width="92" height="72" rx="6" fill="#ddd5c8"/><rect x="199" y="99" width="92" height="92" rx="6" fill="#d9d0c2"/><rect x="199" y="209" width="92" height="102" rx="6" fill="#d9d0c2"/><rect x="199" y="329" width="92" height="92" rx="6" fill="#d4cabb"/><rect x="199" y="439" width="92" height="92" rx="6" fill="#d4cabb"/><rect x="199" y="549" width="92" height="42" rx="6" fill="#ddd5c8"/><rect x="309" y="9" width="102" height="72" rx="6" fill="#ddd5c8"/><rect x="309" y="99" width="102" height="92" rx="6" fill="#d9d0c2"/><rect x="309" y="209" width="102" height="102" rx="6" fill="#d9d0c2"/><rect x="309" y="329" width="102" height="92" rx="6" fill="#ddd5c8"/><rect x="309" y="439" width="102" height="92" rx="6" fill="#d9d0c2"/><rect x="309" y="549" width="102" height="42" rx="6" fill="#d9d0c2"/><rect x="429" y="9" width="82" height="72" rx="6" fill="#d4cabb"/><rect x="429" y="99" width="82" height="92" rx="6" fill="#ddd5c8"/><rect x="429" y="209" width="82" height="102" rx="6" fill="#ddd5c8"/><rect x="429" y="329" width="82" height="92" rx="6" fill="#d9d0c2"/><rect x="429" y="439" width="82" height="92" rx="6" fill="#d9d0c2"/><rect x="429" y="549" width="82" height="42" rx="6" fill="#ddd5c8"/><rect x="529" y="9" width="62" height="72" rx="6" fill="#ddd5c8"/><rect x="529" y="99" width="62" height="92" rx="6" fill="#d4cabb"/><rect x="529" y="209" width="62" height="102" rx="6" fill="#d4cabb"/><rect x="529" y="329" width="62" height="92" rx="6" fill="#ddd5c8"/><rect x="529" y="439" width="62" height="92" rx="6" fill="#d9d0c2"/><rect x="529" y="549" width="62" height="42" rx="6" fill="#d4cabb"/><rect x="190" y="200" width="110" height="120" fill="#e8e1d6"/><circle cx="245" cy="260" r="34" fill="#c9d3bd"/><path d="M-20 470 L620 250" stroke="#f3efe8" stroke-width="22"/><path d="M-20 470 L620 250" stroke="#d6cdbf" stroke-width="1.5" stroke-dasharray="10 10"/><g transform="translate(362 336)"><circle r="46" fill="#ff5a1f" opacity=".16"/><circle r="26" fill="#ff5a1f" opacity=".28"/><path d="M0 -40 C22 -40 32 -24 32 -10 C32 12 0 34 0 34 C0 34 -32 12 -32 -10 C-32 -24 -22 -40 0 -40 Z" fill="#ff5a1f" stroke="#fff" stroke-width="4"/><circle cy="-10" r="11" fill="#fff"/></g><g font-family="Manrope, Arial, sans-serif" font-weight="700" fill="#161513"><rect x="246" y="386" width="232" height="54" rx="12" fill="#161513"/><text x="362" y="409" text-anchor="middle" fill="#fff" font-size="15">EMBI · bureau &amp; showroom</text><text x="362" y="428" text-anchor="middle" fill="#ffb08f" font-size="12">5, rue Villebois-Mareuil, 75017</text></g></svg>